<?xml version="1.0" encoding="utf-8"?>
<svg version="1.0" xmlns="http://www.w3.org/2000/svg" width="48px" height="48px" viewBox="0 0 48 48">
    <path d="M13.2,5.2c-1.7,1.7-1.7,27.9,0,29.6s27.9,1.7,29.6,0c1.7-1.7,1.7-27.9,0-29.6C41.1,3.5,14.9,3.5,13.2,5.2z M36.4,27.5 l3.7,4.5H28H15.9l2.7-3.5c3.1-4.1,3.8-4.3,5.9-1.3l1.5,2.3l2.6-3.3C30,24.5,31.5,23,32,23C32.4,23,34.4,25,36.4,27.5z M4,26.8 C4,37,4.4,42,5.2,42.8S11,44,21.2,44C35.3,44,36,43.9,36,42s-0.7-2-14-2H8V26c0-13.3-0.1-14-2-14S4,12.7,4,26.8z"/>
</svg>
